<svg width="1200" height="630" viewBox="0 0 1200 630" xmlns="http://www.w3.org/2000/svg" role="img" aria-labelledby="title desc">
  <title id="title">Data Detective Platform - Interactive Data Analytics Suite</title>
  <desc id="desc">Promotional cover image showing project title, key features, technology stack, magnifying glass graphic, and call to action to try the live demo.</desc>
  <!-- Background gradient -->
  <defs>
    <linearGradient id="bgGradient" x1="0%" y1="0%" x2="100%" y2="100%">
      <stop offset="0%" style="stop-color:#667eea;stop-opacity:1" />
      <stop offset="100%" style="stop-color:#764ba2;stop-opacity:1" />
    </linearGradient>
    <linearGradient id="cardGradient" x1="0%" y1="0%" x2="100%" y2="100%">
      <stop offset="0%" style="stop-color:#ffffff;stop-opacity:0.95" />
      <stop offset="100%" style="stop-color:#f8f9fa;stop-opacity:0.95" />
    </linearGradient>
    <filter id="shadow" x="-20%" y="-20%" width="140%" height="140%">
      <feDropShadow dx="0" dy="4" stdDeviation="8" flood-color="rgba(0,0,0,0.1)"/>
    </filter>
  </defs>

  <!-- Background -->
  <rect width="1200" height="630" fill="url(#bgGradient)"/>
  <!-- Subtle pattern overlay (non-intrusive) -->
  <g opacity="0.08">
    <circle cx="200" cy="120" r="70" fill="#ffffff"/>
    <circle cx="1040" cy="520" r="90" fill="#ffffff"/>
  </g>

  <!-- Main card -->
  <rect x="60" y="60" width="1080" height="510" rx="22" fill="url(#cardGradient)" filter="url(#shadow)"/>

  <!-- Header section -->
  <g font-family="'Segoe UI', Arial, sans-serif">
    <text x="120" y="138" font-size="50" font-weight="700" fill="#2c3e50">🔍 Data Detective Platform</text>
    <text x="120" y="178" font-size="24" fill="#5f6f7a" letter-spacing="0.5">Interactive Data Analytics &amp; Intelligence Suite</text>
  </g>

  <!-- Main visual - Magnifying glass with data elements -->
  <g transform="translate(720, 205) scale(1.05)" aria-label="Data exploration graphic">
    <!-- Shadow ellipse -->
    <ellipse cx="50" cy="150" rx="46" ry="10" fill="#000" opacity="0.08"/>
    <!-- Handle -->
    <rect x="15" y="80" width="10" height="68" rx="5" fill="#1f78d1"/>
    <!-- Outer ring -->
    <circle cx="50" cy="50" r="48" fill="rgba(255,255,255,0.6)" stroke="#1f78d1" stroke-width="6"/>
    <!-- Inner ring -->
    <circle cx="50" cy="50" r="36" fill="none" stroke="#1f78d1" stroke-width="3" stroke-dasharray="6 6"/>
    <!-- Data points -->
    <g stroke="#1d2731" stroke-width="1.2">
      <circle cx="34" cy="34" r="5" fill="#ff5d4d"/>
      <circle cx="66" cy="42" r="5" fill="#2ecc71"/>
      <circle cx="44" cy="66" r="5" fill="#f5b041"/>
      <circle cx="72" cy="72" r="5" fill="#9b59b6"/>
    </g>
    <!-- Network connections -->
    <g stroke="#2c3e50" stroke-width="2" stroke-linecap="round" fill="none">
      <line x1="34" y1="34" x2="66" y2="42"/>
      <line x1="66" y1="42" x2="44" y2="66"/>
      <line x1="44" y1="66" x2="72" y2="72"/>
      <line x1="72" y1="72" x2="34" y2="34"/>
    </g>
  </g>

  <!-- Feature highlights -->
  <g transform="translate(120, 250)" font-family="'Segoe UI', Arial, sans-serif" fill="#22313f">
    <text font-size="22" font-weight="600">🚀 Key Features</text>
    <g font-size="16" opacity="0.92">
      <text x="0" y="42">• 6 interactive modules (flows, quality, API, ML)</text>
      <text x="0" y="68">• Anomaly detection (classical + time series)</text>
      <text x="0" y="94">• Gamified challenge &amp; achievement system</text>
      <text x="0" y="120">• Simulated multi-cloud ingestion patterns</text>
    </g>
  </g>

  <!-- Tech stack badges -->
  <g transform="translate(120, 400)" font-family="'Segoe UI', Arial, sans-serif">
    <text font-size="19" font-weight="600" fill="#2c3e50">🛠️ Built With</text>
    <g font-size="13" font-weight="600" fill="white" text-anchor="middle">
      <g transform="translate(0,20)"><rect x="0" y="0" width="86" height="30" rx="15" fill="#2563eb"/><text x="43" y="20">Python</text></g>
      <g transform="translate(100,20)"><rect x="0" y="0" width="92" height="30" rx="15" fill="#e74c3c"/><text x="46" y="20">Streamlit</text></g>
      <g transform="translate(205,20)"><rect x="0" y="0" width="86" height="30" rx="15" fill="#16a34a"/><text x="43" y="20">Pandas</text></g>
      <g transform="translate(310,20)"><rect x="0" y="0" width="78" height="30" rx="15" fill="#f59e0b"/><text x="39" y="20">Plotly</text></g>
      <g transform="translate(395,20)"><rect x="0" y="0" width="118" height="30" rx="15" fill="#8b5cf6"/><text x="59" y="20">Scikit-learn</text></g>
      <g transform="translate(0,60)"><rect x="0" y="0" width="78" height="30" rx="15" fill="#06b6d4"/><text x="39" y="20">NumPy</text></g>
      <g transform="translate(90,60)"><rect x="0" y="0" width="98" height="30" rx="15" fill="#7c3aed"/><text x="49" y="20">NetworkX</text></g>
      <g transform="translate(200,60)"><rect x="0" y="0" width="108" height="30" rx="15" fill="#dc2626"/><text x="54" y="20">SQLAlchemy</text></g>
      <g transform="translate(320,60)"><rect x="0" y="0" width="78" height="30" rx="15" fill="#ea580c"/><text x="39" y="20">pytest</text></g>
      <g transform="translate(410,60)"><rect x="0" y="0" width="88" height="30" rx="15" fill="#0891b2"/><text x="44" y="20">Cloud SDK</text></g>
    </g>
  </g>

  <!-- Call to action -->
  <g transform="translate(120, 510)" font-family="'Segoe UI', Arial, sans-serif" aria-label="Launch live demo button">
    <rect x="0" y="0" width="240" height="54" rx="28" fill="#e53935"/>
    <text x="120" y="34" font-size="20" font-weight="700" fill="#ffffff" text-anchor="middle">🚀 Try Live Demo</text>
  </g>

  <!-- GitHub link only -->
  <g font-family="'Segoe UI', Arial, sans-serif" font-size="16" font-weight="500">
    <text x="400" y="575" fill="#2563eb">github.com/AbateG/data-detective-platform</text>
  </g>
</svg>
